<svg viewBox="0 0 207.14 454.19" xmlns="http://www.w3.org/2000/svg"><path d="m4.14 408.57 14.28 34.36c6.24 15 27.49 15 33.72 0l14.28-34.36a54.07 54.07 0 0 0 4.15-20.77v-197.17h-70.57v197.17a54.25 54.25 0 0 0 4.14 20.77z" fill="#c1c4c6"/><path d="m20.51 403.48 10.66 25.66a4.46 4.46 0 0 0 8.23 0l10.66-25.66a49.15 49.15 0 0 0 3.76-18.85v-194h-37.07v194a49.15 49.15 0 0 0 3.76 18.85z" fill="#e6eaed"/><path d="m140.72 408.57 14.28 34.36c6.23 15 27.48 15 33.72 0l14.28-34.36a54.25 54.25 0 0 0 4.14-20.77v-197.17h-70.57v197.17a54.07 54.07 0 0 0 4.15 20.77z" fill="#c1c4c6"/><path d="m157.08 403.48 10.66 25.66a4.46 4.46 0 0 0 8.23 0l10.66-25.66a49.15 49.15 0 0 0 3.76-18.85v-194h-37.07v194a49.15 49.15 0 0 0 3.76 18.85z" fill="#e6eaed"/><path d="m70.57 190.63a33 33 0 0 1 66 0h70.57v-96.83a35.57 35.57 0 0 0 -35.57-35.56h-136a35.56 35.56 0 0 0 -35.57 35.56v96.83z" fill="#78d6cf"/><path d="m64.89 58.25h77.36v39.14h-77.36z" fill="#58595b" transform="matrix(-1 0 0 -1 207.14 155.65)"/><path d="m81.45 0h12.91v75.97h-12.91z" fill="#c1c4c6" transform="matrix(-1 0 0 -1 175.82 75.97)"/><path d="m112.77 0h12.91v75.97h-12.91z" fill="#c1c4c6" transform="matrix(-1 0 0 -1 238.45 75.97)"/><g fill="#fff"><circle cx="36.17" cy="97.4" r="19.43"/><circle cx="170.97" cy="97.4" r="19.43"/></g></svg>